<svg width="1920" height="1080" viewBox="0 0 1920 1080" fill="none" xmlns="http://www.w3.org/2000/svg">
<g clip-path="url(#clip0_18615_38118)">
<rect width="1920" height="1080" fill="#6CE0F0"/>
<rect width="1077" height="281" fill="#D9D9D9" fill-opacity="0.23"/>
<rect x="-279" y="399" width="1026" height="228" fill="#D9D9D9" fill-opacity="0.23"/>
<rect x="1057" y="599" width="538" height="120" fill="#D9D9D9" fill-opacity="0.23"/>
<rect x="620" y="184" width="1411" height="337" fill="#D9D9D9" fill-opacity="0.23"/>
<rect x="1326" y="87" width="917" height="194" fill="#D9D9D9" fill-opacity="0.23"/>
<rect x="747" y="796" width="2522" height="136" fill="#D9D9D9" fill-opacity="0.23"/>
<rect x="-203" y="864" width="1036" height="296" fill="#D9D9D9" fill-opacity="0.23"/>
<path d="M822.095 981.285H813V942.013C813 931.811 821.358 923.538 831.667 923.538H846.823C850.876 923.538 854.163 926.792 854.163 930.804V938.541H831.667C829.73 938.541 828.159 940.095 828.159 942.013V975.284C828.159 978.598 825.444 981.285 822.095 981.285Z" fill="white"/>
<path d="M959.483 981.284H941.234C930.923 981.284 922.565 973.013 922.565 962.811V942.012C922.565 931.81 930.923 923.537 941.234 923.537H949.509C953.562 923.537 956.85 926.791 956.85 930.803V938.54H941.234C939.295 938.54 937.725 940.094 937.725 942.012V962.811C937.725 964.727 939.295 966.282 941.234 966.282H959.483C961.42 966.282 962.991 964.727 962.991 962.811V897H970.81C974.864 897 978.15 900.252 978.15 904.265V962.811C978.15 973.013 969.792 981.284 959.483 981.284Z" fill="white"/>
<path d="M1002.43 925.312C1004.69 928.135 1014.39 940.269 1016.45 942.841L1007.11 952.078C1001.54 947.711 990.169 938.808 984.535 934.395C984.469 934.344 984.469 934.259 984.528 934.201L994.486 924.346C996.617 922.237 1000.13 922.439 1002 924.779L1002.43 925.312Z" fill="white"/>
<path d="M989.396 965.953C992.248 963.718 1004.51 954.118 1007.11 952.082L1016.44 961.318C1012.98 965.651 1006.69 973.519 1001.98 979.4C1000.12 981.733 996.617 981.929 994.492 979.824L984.417 969.854L989.396 965.953Z" fill="white"/>
<path d="M1030.46 978.841C1028.2 976.018 1018.5 963.884 1016.44 961.312L1025.77 952.075C1031.35 956.442 1042.72 965.345 1048.35 969.758C1048.42 969.809 1048.42 969.894 1048.36 969.952L1038.4 979.807C1036.27 981.916 1032.76 981.714 1030.89 979.374L1030.46 978.841Z" fill="white"/>
<path d="M1043.49 938.207C1040.64 940.442 1028.37 950.042 1025.78 952.078L1016.44 942.842C1019.88 938.54 1026.11 930.754 1030.8 924.89C1032.78 922.408 1036.25 922.215 1038.51 924.452L1048.47 934.307L1043.49 938.207Z" fill="white"/>
<path d="M1089.33 923.538H1063.28C1059.23 923.538 1055.94 926.79 1055.94 930.804V938.541H1089.33C1091.27 938.541 1092.84 940.095 1092.84 942.013V962.81C1092.84 964.727 1091.27 966.283 1089.33 966.283H1071.78C1069.46 966.283 1067.57 964.417 1067.57 962.116C1067.57 959.816 1069.46 957.951 1071.78 957.951H1086.7V952.31C1086.7 949.308 1084.24 946.872 1081.2 946.872H1069.8C1060.2 946.872 1052.41 954.575 1052.41 964.077C1052.41 973.577 1060.2 981.28 1069.8 981.282L1089.33 981.285C1099.64 981.285 1108 973.013 1108 962.81V942.013C1108 931.809 1099.64 923.538 1089.33 923.538Z" fill="white"/>
<path d="M894.631 923.537H868.583C864.528 923.537 861.242 926.79 861.242 930.803V938.54H894.631C896.569 938.54 898.14 940.094 898.14 942.012V962.809C898.14 964.726 896.569 966.282 894.631 966.282H877.082C874.758 966.282 872.872 964.416 872.872 962.115C872.872 959.815 874.758 957.95 877.082 957.95H891.998V952.31C891.998 949.307 889.536 946.871 886.502 946.871H875.098C865.496 946.871 857.713 954.574 857.713 964.076C857.713 973.576 865.495 981.279 875.095 981.281L894.631 981.284C904.942 981.284 913.299 973.012 913.299 962.809V942.012C913.299 931.808 904.942 923.537 894.631 923.537Z" fill="white"/>
</g>
<defs>
<clipPath id="clip0_18615_38118">
<rect width="1920" height="1080" fill="white"/>
</clipPath>
</defs>
</svg>
