<svg width="1920" height="1080" viewBox="0 0 1920 1080" fill="none" xmlns="http://www.w3.org/2000/svg">
<g clip-path="url(#clip0_18614_37355)">
<rect width="1920" height="1080" fill="#1E1E1E"/>
<path d="M3051.9 450.269L3039.02 415.819C2576.09 216.681 2296.9 33.1084 1995 346.499C1914.73 429.796 1776.11 559.834 1692 635.499C1577.62 738.453 1359.56 885.288 1185.91 788.688C993.131 681.456 819.896 620.548 683.667 708.028C502.977 824.407 396.196 1134.31 312.109 1438.44L323.983 1470.2L1927.5 1284.5L3051.9 450.269Z" fill="white" fill-opacity="0.32"/>
<path d="M-718.102 644.965L-704.419 668.664C-340.246 757.951 -53.5838 661.594 129.481 394.54C178.159 323.556 212.306 233.796 264.737 167.941C336.03 78.3435 470.385 117.908 609.68 167.473C764.321 222.49 898.927 245.913 988.155 164.988C1106.46 57.3952 1146.77 -183.137 1171.12 -416.652L1158.51 -438.498L-105.602 -167.998L-718.102 644.965Z" fill="white" fill-opacity="0.08"/>
<path opacity="0.5" d="M2304.62 1060.29L2005.85 664.718C1956.84 618.348 1905.5 576.434 1847.37 551.616C1697.38 487.499 1557.45 540.646 1449.61 640.481C1393.22 692.668 1347.36 758.603 1297.94 819.161C1229.56 902.952 1163.06 1010.56 1068.2 1057.28C993.554 1093.92 907.172 1088.61 825.702 1051.22C732.264 1008.35 630.156 934.326 530.791 937.766C433.498 941.075 363.619 1020.77 300.542 1098.26C237.465 1175.75 179.084 1263.19 93.887 1307.46C-27.9135 1370.93 -171.267 1336.48 -306.207 1338.02C-379.47 1338.87 -438.531 1368.58 -484.835 1427.79C-521.834 1475 -560.369 1538.56 -564.982 1608.66L-543.428 1666.31L2262.82 1276.36L2304.62 1060.29Z" fill="white" fill-opacity="0.48"/>
<path d="M822.095 981.285H813V942.013C813 931.811 821.358 923.538 831.667 923.538H846.823C850.876 923.538 854.163 926.792 854.163 930.804V938.541H831.667C829.73 938.541 828.159 940.095 828.159 942.013V975.284C828.159 978.598 825.444 981.285 822.095 981.285Z" fill="#74BC1F"/>
<path d="M959.483 981.285H941.234C930.923 981.285 922.565 973.014 922.565 962.812V942.013C922.565 931.811 930.923 923.538 941.234 923.538H949.509C953.562 923.538 956.85 926.792 956.85 930.804V938.541H941.234C939.295 938.541 937.725 940.095 937.725 942.013V962.812C937.725 964.728 939.295 966.283 941.234 966.283H959.483C961.42 966.283 962.991 964.728 962.991 962.812V897.001H970.81C974.864 897.001 978.15 900.253 978.15 904.266V962.812C978.15 973.014 969.792 981.285 959.483 981.285Z" fill="#74BC1F"/>
<path d="M1002.43 925.312C1004.69 928.135 1014.39 940.269 1016.45 942.841L1007.11 952.078C1001.54 947.711 990.169 938.808 984.535 934.395C984.469 934.344 984.469 934.259 984.528 934.201L994.486 924.346C996.617 922.237 1000.13 922.439 1002 924.779L1002.43 925.312Z" fill="#74BC1F"/>
<path d="M989.396 965.954C992.248 963.719 1004.51 954.119 1007.11 952.083L1016.44 961.319C1012.98 965.652 1006.69 973.52 1001.98 979.401C1000.12 981.734 996.617 981.93 994.492 979.825L984.417 969.855L989.396 965.954Z" fill="#74BC1F"/>
<path d="M1030.46 978.841C1028.2 976.018 1018.5 963.884 1016.44 961.312L1025.77 952.075C1031.35 956.442 1042.72 965.345 1048.35 969.758C1048.42 969.809 1048.42 969.894 1048.36 969.952L1038.4 979.807C1036.27 981.916 1032.76 981.714 1030.89 979.374L1030.46 978.841Z" fill="#74BC1F"/>
<path d="M1043.49 938.207C1040.64 940.442 1028.37 950.042 1025.78 952.078L1016.44 942.842C1019.88 938.54 1026.11 930.754 1030.8 924.89C1032.78 922.408 1036.25 922.215 1038.51 924.452L1048.47 934.307L1043.49 938.207Z" fill="#74BC1F"/>
<path d="M1089.33 923.538H1063.28C1059.23 923.538 1055.94 926.79 1055.94 930.804V938.541H1089.33C1091.27 938.541 1092.84 940.095 1092.84 942.013V962.81C1092.84 964.727 1091.27 966.283 1089.33 966.283H1071.78C1069.46 966.283 1067.57 964.417 1067.57 962.116C1067.57 959.816 1069.46 957.951 1071.78 957.951H1086.7V952.31C1086.7 949.308 1084.24 946.872 1081.2 946.872H1069.8C1060.2 946.872 1052.41 954.575 1052.41 964.077C1052.41 973.577 1060.2 981.28 1069.8 981.282L1089.33 981.285C1099.64 981.285 1108 973.013 1108 962.81V942.013C1108 931.809 1099.64 923.538 1089.33 923.538Z" fill="#74BC1F"/>
<path d="M894.631 923.538H868.583C864.528 923.538 861.242 926.79 861.242 930.804V938.541H894.631C896.569 938.541 898.14 940.095 898.14 942.013V962.81C898.14 964.727 896.569 966.283 894.631 966.283H877.082C874.758 966.283 872.872 964.417 872.872 962.116C872.872 959.816 874.758 957.951 877.082 957.951H891.998V952.31C891.998 949.308 889.536 946.872 886.502 946.872H875.098C865.496 946.872 857.713 954.575 857.713 964.077C857.713 973.577 865.495 981.28 875.095 981.282L894.631 981.285C904.942 981.285 913.299 973.013 913.299 962.81V942.013C913.299 931.809 904.942 923.538 894.631 923.538Z" fill="#74BC1F"/>
</g>
<defs>
<clipPath id="clip0_18614_37355">
<rect width="1920" height="1080" fill="white"/>
</clipPath>
</defs>
</svg>
