<svg width="1920" height="1080" viewBox="0 0 1920 1080" fill="none" xmlns="http://www.w3.org/2000/svg">
<g clip-path="url(#clip0_18615_37789)">
<rect width="1920" height="1080" fill="#FFAAAA"/>
<path opacity="0.25" d="M-363 0V226.435C-261.845 335.03 -143.735 383.8 -28.5667 363.402C120.362 337.134 259.998 200.461 409.16 179.964C565.455 158.637 721.453 262.536 871.017 352.445C1017.64 440.495 1163.75 474.149 1314.25 416.428C1390.76 387.078 1462.1 329.16 1535.33 272.906C1731.42 122.292 1992.85 -69.9019 2177 256.666V0H-363Z" fill="white" fill-opacity="0.23"/>
<path opacity="0.5" d="M-363 0V77.3373C-335.483 180.6 -304.495 278.14 -262.056 352.445C-152.582 544.296 -13.75 542.975 112.361 447.979C178.295 398.328 239.551 320.453 302.162 253.291C388.776 160.349 481.508 28.2738 579.086 10.3214C655.836 -3.61983 729.158 56.4009 787.789 164.702C855.036 288.902 919.7 467.986 1007.14 521.794C1092.74 574.575 1179.33 489.069 1259.3 403.024C1339.27 316.98 1418.39 212.249 1506.78 192.438C1633.21 163.822 1746.55 304.36 1864.28 382.431C1928.21 424.792 1989.17 412.612 2048.62 345.743C2096.1 292.473 2150.22 214.01 2177 104.877V0H-363Z" fill="white" fill-opacity="0.23"/>
<path d="M-363 0V27.5401C-45.6482 288.608 301.824 348.874 644.173 208.238C735.19 170.866 822.46 109.818 914.281 78.8047C1039.16 36.5897 1152.36 138.679 1264.72 251.97C1389.45 377.734 1512.37 465.882 1650.37 440.25C1833.53 406.008 2015.41 216.652 2177 25.3877V0H-363Z" fill="white" fill-opacity="0.23"/>
<path d="M821.095 981.285H812V942.013C812 931.811 820.358 923.538 830.667 923.538H845.823C849.876 923.538 853.163 926.792 853.163 930.804V938.541H830.667C828.73 938.541 827.159 940.095 827.159 942.013V975.284C827.159 978.598 824.444 981.285 821.095 981.285Z" fill="white"/>
<path d="M958.483 981.284H940.234C929.923 981.284 921.565 973.013 921.565 962.811V942.012C921.565 931.81 929.923 923.537 940.234 923.537H948.509C952.562 923.537 955.85 926.791 955.85 930.803V938.54H940.234C938.295 938.54 936.725 940.094 936.725 942.012V962.811C936.725 964.727 938.295 966.282 940.234 966.282H958.483C960.42 966.282 961.991 964.727 961.991 962.811V897H969.81C973.864 897 977.15 900.252 977.15 904.265V962.811C977.15 973.013 968.792 981.284 958.483 981.284Z" fill="white"/>
<path d="M1001.43 925.312C1003.69 928.135 1013.39 940.269 1015.45 942.841L1006.11 952.078C1000.54 947.711 989.168 938.808 983.534 934.395C983.468 934.344 983.468 934.259 983.528 934.201L993.486 924.346C995.617 922.237 999.131 922.439 1001 924.779L1001.43 925.312Z" fill="white"/>
<path d="M988.396 965.953C991.248 963.718 1003.51 954.118 1006.11 952.082L1015.44 961.318C1011.98 965.651 1005.68 973.519 1000.98 979.4C999.117 981.733 995.617 981.929 993.492 979.824L983.417 969.854L988.396 965.953Z" fill="white"/>
<path d="M1029.46 978.841C1027.2 976.018 1017.5 963.884 1015.44 961.312L1024.77 952.075C1030.35 956.442 1041.72 965.345 1047.35 969.758C1047.42 969.809 1047.42 969.894 1047.36 969.952L1037.4 979.807C1035.27 981.916 1031.76 981.714 1029.89 979.374L1029.46 978.841Z" fill="white"/>
<path d="M1042.49 938.207C1039.64 940.442 1027.37 950.042 1024.78 952.078L1015.44 942.842C1018.88 938.54 1025.11 930.754 1029.8 924.89C1031.78 922.408 1035.25 922.215 1037.51 924.452L1047.47 934.307L1042.49 938.207Z" fill="white"/>
<path d="M1088.33 923.538H1062.28C1058.23 923.538 1054.94 926.79 1054.94 930.804V938.541H1088.33C1090.27 938.541 1091.84 940.095 1091.84 942.013V962.81C1091.84 964.727 1090.27 966.283 1088.33 966.283H1070.78C1068.46 966.283 1066.57 964.417 1066.57 962.116C1066.57 959.816 1068.46 957.951 1070.78 957.951H1085.7V952.31C1085.7 949.308 1083.24 946.872 1080.2 946.872H1068.8C1059.2 946.872 1051.41 954.575 1051.41 964.077C1051.41 973.577 1059.2 981.28 1068.8 981.282L1088.33 981.285C1098.64 981.285 1107 973.013 1107 962.81V942.013C1107 931.809 1098.64 923.538 1088.33 923.538Z" fill="white"/>
<path d="M893.631 923.537H867.583C863.528 923.537 860.242 926.79 860.242 930.803V938.54H893.631C895.569 938.54 897.14 940.094 897.14 942.012V962.809C897.14 964.726 895.569 966.282 893.631 966.282H876.082C873.758 966.282 871.872 964.416 871.872 962.115C871.872 959.815 873.758 957.95 876.082 957.95H890.998V952.31C890.998 949.307 888.536 946.871 885.502 946.871H874.098C864.496 946.871 856.713 954.574 856.713 964.076C856.713 973.576 864.495 981.279 874.095 981.281L893.631 981.284C903.942 981.284 912.299 973.012 912.299 962.809V942.012C912.299 931.808 903.942 923.537 893.631 923.537Z" fill="white"/>
</g>
<defs>
<clipPath id="clip0_18615_37789">
<rect width="1920" height="1080" fill="white"/>
</clipPath>
</defs>
</svg>
